<?xml version="1.0" standalone="no"?>
<!DOCTYPE svg PUBLIC "-//W3C//DTD SVG 20010904//EN"
 "http://www.w3.org/TR/2001/REC-SVG-20010904/DTD/svg10.dtd">
<svg version="1.0" xmlns="http://www.w3.org/2000/svg"
 width="200.000000pt" height="200.000000pt" viewBox="0 0 200.000000 200.000000"
 preserveAspectRatio="xMidYMid meet">

<g transform="translate(0.000000,200.000000) scale(0.100000,-0.100000)"
fill="#000000" stroke="none">
<path d="M309 1431 c-45 -46 -40 -84 21 -162 78 -100 80 -99 -120 -99 l-170 0
0 -46 0 -45 206 3 206 3 29 33 c42 47 38 77 -20 157 -27 37 -47 74 -44 81 4
11 32 14 124 14 l119 0 0 -145 0 -145 55 0 55 0 0 145 0 144 88 3 87 3 3 43 3
42 -306 0 -307 0 -29 -29z"/>
<path d="M1016 1343 c-22 -65 -50 -151 -62 -190 l-22 -73 53 0 53 0 15 43 14
42 78 0 78 0 15 -42 14 -43 54 0 c30 0 54 1 54 3 0 1 -29 85 -64 187 l-64 185
-89 3 -88 3 -39 -118z m168 -70 c7 -22 5 -23 -43 -23 l-50 0 20 58 c10 31 22
64 25 72 6 14 20 -19 48 -107z"/>
<path d="M1442 1273 l3 -188 58 -3 57 -3 0 72 0 72 74 -71 74 -72 126 0 126 0
0 45 0 45 -88 0 c-84 0 -90 1 -115 28 l-27 28 26 14 c51 28 72 120 38 168 -31
44 -63 52 -214 52 l-140 0 2 -187z m256 85 c18 -18 14 -46 -7 -58 -11 -5 -45
-10 -75 -10 l-56 0 0 40 0 40 63 0 c36 0 68 -5 75 -12z"/>
<path d="M60 913 c0 -4 27 -90 61 -190 l61 -183 36 0 37 0 39 112 39 112 40
-112 40 -112 36 0 36 0 59 178 c32 97 61 183 64 190 3 10 -9 12 -53 10 l-58
-3 -26 -78 -26 -78 -26 78 -25 78 -60 3 -60 3 -29 -83 -29 -82 -26 79 -27 80
-51 3 c-29 2 -52 -1 -52 -5z"/>
<path d="M725 908 c-13 -34 -115 -357 -115 -362 0 -3 22 -6 49 -6 48 0 49 1
65 40 l16 40 78 0 79 0 13 -40 13 -40 55 0 c39 0 53 3 49 13 -2 6 -31 92 -63
190 l-59 177 -88 0 c-61 0 -89 -4 -92 -12z m114 -120 c12 -34 21 -66 21 -70 0
-4 -21 -8 -46 -8 -33 0 -45 4 -41 13 2 6 13 38 23 70 10 31 19 57 20 57 1 0
12 -28 23 -62z"/>
<path d="M1122 733 l3 -188 55 0 55 0 5 68 5 69 30 -33 c17 -17 52 -49 78 -70
l49 -39 179 0 c209 0 241 8 265 65 19 45 14 60 -41 131 -69 88 -65 94 55 94
l100 0 0 46 0 46 -141 -4 -141 -3 -29 -33 c-44 -49 -39 -79 26 -156 78 -91 73
-96 -82 -96 -121 0 -124 1 -148 26 -31 33 -31 38 -2 51 13 6 32 28 41 48 24
51 15 95 -30 134 l-35 31 -150 0 -149 0 2 -187z m256 85 c18 -18 14 -46 -7
-58 -11 -5 -45 -10 -75 -10 l-56 0 0 40 0 40 63 0 c36 0 68 -5 75 -12z"/>
</g>
</svg>
