<svg version="1.1" id="Layer_1" xmlns="http://www.w3.org/2000/svg" xmlns:xlink="http://www.w3.org/1999/xlink" x="0px" y="0px"
	 width="100%" viewBox="0 0 200 200" enable-background="new 0 0 200 200" xml:space="preserve">
<path fill="#000000" opacity="1.000000" stroke="none" 
	d="
M201.000000,97.000000 
	C201.000000,99.370560 201.000000,101.741112 200.531372,104.550644 
	C190.567688,104.989166 181.072083,104.924370 171.577774,105.007347 
	C162.993759,105.082359 156.479492,113.497368 159.059723,121.747620 
	C160.294312,125.695183 162.931870,129.203979 164.862335,132.778763 
	C160.409760,132.778763 155.527908,132.778763 150.494797,132.778763 
	C157.310501,123.618340 156.113785,113.847046 149.099945,108.764915 
	C146.487396,106.871902 143.022415,105.295090 139.876480,105.156647 
	C129.648376,104.706528 119.388084,104.988235 108.811951,104.988235 
	C108.811951,118.848938 108.811951,131.994278 108.811951,145.139603 
	C104.183266,132.979645 100.174149,120.734299 95.919250,108.574951 
	C95.416565,107.138420 93.610054,105.206894 92.333893,105.149437 
	C85.035187,104.820770 77.714088,104.989754 70.491447,104.989754 
	C65.538078,120.323082 60.681667,135.356262 55.706455,150.757202 
	C62.607166,150.757202 69.033272,150.757202 75.810013,150.757202 
	C75.881454,150.025589 75.693153,149.075607 76.078178,148.530884 
	C77.431190,146.616714 78.697922,143.720505 80.518875,143.260284 
	C83.767258,142.439270 87.870682,141.900635 88.819756,147.302002 
	C89.061043,148.675262 90.823959,150.821411 91.924194,150.844116 
	C104.211090,151.097580 116.505150,151.004089 128.992279,151.004089 
	C128.992279,148.576767 128.992279,146.614609 128.992279,144.071564 
	C130.942780,145.424271 132.388428,146.734161 134.076645,147.528717 
	C136.910492,148.862411 139.870590,150.762009 142.826965,150.855118 
	C154.808853,151.232391 166.813370,151.170532 178.800262,150.883545 
	C181.326385,150.823074 184.319443,149.716919 186.226105,148.078613 
	C192.641724,142.565964 193.028275,133.805298 187.681763,127.137054 
	C186.501633,125.665169 185.472321,124.072357 183.990982,122.000000 
	C190.112167,122.000000 195.556091,122.000000 201.000000,122.000000 
	C201.000000,148.301987 201.000000,174.603989 201.000000,200.952988 
	C134.444046,200.952988 67.888046,200.952988 1.000000,200.952988 
	C1.000000,171.646606 1.000000,142.291962 1.289139,112.134262 
	C2.054464,112.133125 2.690036,112.881042 2.982856,113.745110 
	C7.173874,126.112244 11.318637,138.495041 15.520853,151.012039 
	C19.476856,151.012039 23.330164,151.291107 27.104740,150.867950 
	C28.517155,150.709595 30.218046,149.172318 30.957869,147.812454 
	C32.375114,145.207428 33.198734,142.279449 34.427402,139.070984 
	C38.771286,151.745026 38.776691,151.813644 50.183121,150.915024 
	C51.448357,150.815338 53.333637,149.628265 53.707581,148.529129 
	C58.587475,134.185730 63.246449,119.767174 68.085426,104.987434 
	C62.511227,104.987434 57.336288,105.279778 52.211681,104.897453 
	C47.902672,104.575974 45.557491,105.826881 45.905842,111.634377 
	C44.802925,108.634102 44.154034,106.868927 43.462387,104.987434 
	C39.352848,104.987434 35.362267,104.984802 31.371689,104.988220 
	C27.683834,104.991379 23.453976,103.949173 22.574953,110.149780 
	C22.745232,105.049515 19.914003,104.822845 16.492373,104.941788 
	C11.333807,105.121101 6.164653,104.995811 1.000000,105.000000 
	C1.000000,102.629440 1.000000,100.258888 1.468644,97.447952 
	C14.762277,97.007927 27.587835,96.937012 40.412006,97.039627 
	C46.540318,97.088661 52.088089,95.653191 54.602646,89.663948 
	C57.009594,83.931023 57.673588,77.906410 52.458115,72.803062 
	C51.206299,71.578156 50.483860,69.812263 49.513836,68.288689 
	C53.816917,68.288689 57.752213,68.288689 62.139957,68.288689 
	C62.139957,77.959961 62.139957,87.360161 62.139957,96.674591 
	C69.012146,96.674591 75.408455,96.674591 82.260475,96.674591 
	C82.260475,86.945419 82.260475,77.543976 82.260475,68.379509 
	C87.433342,68.379509 92.131584,68.379509 97.079117,68.379509 
	C93.996078,78.083099 91.045494,87.369804 87.983032,97.008621 
	C93.490051,97.008621 98.492798,96.773369 103.460693,97.088135 
	C106.999695,97.312370 109.318665,96.335876 109.647766,92.687630 
	C109.994896,88.839455 112.498917,88.952682 115.289146,88.975204 
	C118.158997,88.998375 121.028725,88.593811 121.374229,92.755455 
	C121.691788,96.580681 124.192284,97.431641 127.616188,97.048691 
	C129.590195,96.827911 131.609131,97.008629 133.607834,97.008629 
	C142.704193,97.008629 151.800552,97.008629 160.851929,97.008629 
	C160.989914,94.295471 161.095169,92.225571 161.239090,89.395660 
	C162.736160,90.601738 163.746292,91.148735 164.390503,91.979492 
	C167.631332,96.158875 171.819016,97.347656 177.020081,97.105461 
	C184.997726,96.733978 193.005188,97.002869 201.000000,97.000000 
z"/>
<path fill="#000000" opacity="1.000000" stroke="none" 
	d="
M1.000000,79.000000 
	C1.000000,53.031891 1.000000,27.063780 1.000000,1.047835 
	C67.552979,1.047835 134.106003,1.047835 201.000000,1.047835 
	C201.000000,27.019901 201.000000,53.041294 200.531799,79.527557 
	C194.263412,79.992424 188.463242,79.992424 181.899750,79.992424 
	C183.116333,78.208321 183.954803,76.885033 184.885010,75.629715 
	C191.013779,67.358719 185.124374,51.715637 175.195648,51.148430 
	C163.956284,50.506340 152.652039,51.000324 141.081329,51.000324 
	C141.081329,63.731617 141.081329,75.982948 141.081329,88.234276 
	C136.836731,77.892029 133.256241,67.422211 130.027863,56.844917 
	C128.720551,52.561672 126.910912,50.169140 121.901886,50.885349 
	C118.146965,51.422237 114.210228,51.355701 110.432228,50.905327 
	C104.870064,50.242264 101.305359,51.675301 100.884598,57.822311 
	C100.874634,57.967911 100.438988,58.084373 99.885681,58.387875 
	C99.885681,55.924950 99.885681,53.650154 99.885681,50.991421 
	C98.292625,50.991421 96.986412,50.991425 95.680191,50.991425 
	C76.188538,50.991413 56.696884,50.980858 37.205246,50.997334 
	C30.743307,51.002796 25.748661,56.141148 24.898745,62.558384 
	C24.002041,69.328903 27.763332,73.874336 32.166149,79.000000 
	C21.221167,79.000000 11.110583,79.000000 1.000000,79.000000 
z"/>
<path fill="#FBBE07" opacity="1.000000" stroke="none" 
	d="
M1.000000,79.467941 
	C11.110583,79.000000 21.221167,79.000000 32.166149,79.000000 
	C27.763332,73.874336 24.002041,69.328903 24.898745,62.558384 
	C25.748661,56.141148 30.743307,51.002796 37.205246,50.997334 
	C56.696884,50.980858 76.188538,50.991413 95.680191,50.991425 
	C96.986412,50.991425 98.292625,50.991421 99.885681,50.991421 
	C99.885681,53.650154 99.885681,55.924950 99.885681,58.387875 
	C100.438988,58.084373 100.874634,57.967911 100.884598,57.822311 
	C101.305359,51.675301 104.870064,50.242264 110.432228,50.905327 
	C114.210228,51.355701 118.146965,51.422237 121.901886,50.885349 
	C126.910912,50.169140 128.720551,52.561672 130.027863,56.844917 
	C133.256241,67.422211 136.836731,77.892029 141.081329,88.234276 
	C141.081329,75.982948 141.081329,63.731617 141.081329,51.000324 
	C152.652039,51.000324 163.956284,50.506340 175.195648,51.148430 
	C185.124374,51.715637 191.013779,67.358719 184.885010,75.629715 
	C183.954803,76.885033 183.116333,78.208321 181.899750,79.992424 
	C188.463242,79.992424 194.263412,79.992424 200.531799,79.996216 
	C201.000000,85.354927 201.000000,90.709862 201.000000,96.532394 
	C193.005188,97.002869 184.997726,96.733978 177.020081,97.105461 
	C171.819016,97.347656 167.631332,96.158875 164.390503,91.979492 
	C163.746292,91.148735 162.736160,90.601738 161.239090,89.395660 
	C161.095169,92.225571 160.989914,94.295471 160.851929,97.008629 
	C151.800552,97.008629 142.704193,97.008629 133.607834,97.008629 
	C131.609131,97.008629 129.590195,96.827911 127.616188,97.048691 
	C124.192284,97.431641 121.691788,96.580681 121.374229,92.755455 
	C121.028725,88.593811 118.158997,88.998375 115.289146,88.975204 
	C112.498917,88.952682 109.994896,88.839455 109.647766,92.687630 
	C109.318665,96.335876 106.999695,97.312370 103.460693,97.088135 
	C98.492798,96.773369 93.490051,97.008621 87.983032,97.008621 
	C91.045494,87.369804 93.996078,78.083099 97.079117,68.379509 
	C92.131584,68.379509 87.433342,68.379509 82.260475,68.379509 
	C82.260475,77.543976 82.260475,86.945419 82.260475,96.674591 
	C75.408455,96.674591 69.012146,96.674591 62.139957,96.674591 
	C62.139957,87.360161 62.139957,77.959961 62.139957,68.288689 
	C57.752213,68.288689 53.816917,68.288689 49.513836,68.288689 
	C50.483860,69.812263 51.206299,71.578156 52.458115,72.803062 
	C57.673588,77.906410 57.009594,83.931023 54.602646,89.663948 
	C52.088089,95.653191 46.540318,97.088661 40.412006,97.039627 
	C27.587835,96.937012 14.762277,97.007927 1.468644,97.003784 
	C1.000000,91.311958 1.000000,85.623917 1.000000,79.467941 
M28.956787,64.538353 
	C31.323311,68.588387 33.727840,72.616898 36.039776,76.697853 
	C37.139771,78.639542 38.063423,80.681122 39.066956,82.677452 
	C36.964012,83.192085 34.868416,84.112793 32.756851,84.150993 
	C23.657606,84.315575 14.553678,84.221344 5.484779,84.221344 
	C5.484779,87.406471 5.484779,89.944862 5.484779,92.754753 
	C17.852243,92.754753 29.817375,92.837997 41.780216,92.708939 
	C45.886295,92.664642 49.116955,90.717224 50.940411,86.862251 
	C52.715168,83.110229 51.840405,79.814346 49.314396,76.681755 
	C47.229591,74.096313 45.278141,71.392548 43.419964,68.638405 
	C41.766464,66.187637 41.946987,63.837101 45.356911,63.704475 
	C52.415207,63.429951 59.491638,63.621696 67.097580,63.621696 
	C67.097580,73.737389 67.097580,83.122528 67.097580,92.419281 
	C70.902771,92.419281 74.137314,92.419281 77.904083,92.419281 
	C77.904083,82.671532 77.904083,73.268227 77.904083,63.391594 
	C84.029800,63.391594 89.615517,63.391594 95.244156,63.391594 
	C95.244156,60.352318 95.244156,57.819725 95.244156,55.085609 
	C76.182091,55.085609 57.547974,55.018787 38.914864,55.126266 
	C33.312988,55.158577 30.750393,57.618057 28.956787,64.538353 
M182.091583,68.203659 
	C181.984543,60.840416 178.686722,55.830036 172.297592,55.404556 
	C163.574631,54.823658 154.783966,55.259567 145.990173,55.259567 
	C145.990173,67.911224 145.990173,80.121597 145.990173,92.426605 
	C149.751999,92.426605 153.144211,92.426605 157.128662,92.426605 
	C157.128662,87.934006 157.128662,83.764603 157.128662,78.889793 
	C161.333145,82.817581 164.763306,86.192741 168.394775,89.335274 
	C169.974167,90.702042 171.925720,92.456436 173.779602,92.545242 
	C181.360809,92.908394 188.969543,92.696732 196.681824,92.696732 
	C196.681824,89.677567 196.681824,87.245987 196.681824,84.738724 
	C189.116180,82.552719 179.454407,88.127853 174.961792,79.417450 
	C177.547974,75.602928 179.778610,72.312820 182.091583,68.203659 
M104.986481,91.733185 
	C106.374741,89.254662 107.321396,85.158096 109.242958,84.633659 
	C113.272041,83.534027 117.820023,84.200798 122.139793,84.429062 
	C122.892426,84.468834 123.814804,85.800072 124.244492,86.726898 
	C127.359207,93.445221 128.359741,93.925209 136.542099,91.879265 
	C132.330429,79.634354 128.132080,67.428169 123.889420,55.093182 
	C119.117073,55.093182 114.613899,55.288532 110.138123,55.022701 
	C107.279099,54.852894 106.006355,55.874928 105.216911,58.548733 
	C103.146317,65.561806 100.816513,72.498222 98.601593,79.468857 
	C97.260643,83.688980 95.941254,87.915947 94.520859,92.430031 
	C98.299568,92.430031 101.415054,92.430031 104.986481,91.733185 
z"/>
<path fill="#F9BC07" opacity="1.000000" stroke="none" 
	d="
M201.000000,121.532394 
	C195.556091,122.000000 190.112167,122.000000 183.990982,122.000000 
	C185.472321,124.072357 186.501633,125.665169 187.681763,127.137054 
	C193.028275,133.805298 192.641724,142.565964 186.226105,148.078613 
	C184.319443,149.716919 181.326385,150.823074 178.800262,150.883545 
	C166.813370,151.170532 154.808853,151.232391 142.826965,150.855118 
	C139.870590,150.762009 136.910492,148.862411 134.076645,147.528717 
	C132.388428,146.734161 130.942780,145.424271 128.992279,144.071564 
	C128.992279,146.614609 128.992279,148.576767 128.992279,151.004089 
	C116.505150,151.004089 104.211090,151.097580 91.924194,150.844116 
	C90.823959,150.821411 89.061043,148.675262 88.819756,147.302002 
	C87.870682,141.900635 83.767258,142.439270 80.518875,143.260284 
	C78.697922,143.720505 77.431190,146.616714 76.078178,148.530884 
	C75.693153,149.075607 75.881454,150.025589 75.810013,150.757202 
	C69.033272,150.757202 62.607166,150.757202 55.706455,150.757202 
	C60.681667,135.356262 65.538078,120.323082 70.491447,104.989754 
	C77.714088,104.989754 85.035187,104.820770 92.333893,105.149437 
	C93.610054,105.206894 95.416565,107.138420 95.919250,108.574951 
	C100.174149,120.734299 104.183266,132.979645 108.811951,145.139603 
	C108.811951,131.994278 108.811951,118.848938 108.811951,104.988235 
	C119.388084,104.988235 129.648376,104.706528 139.876480,105.156647 
	C143.022415,105.295090 146.487396,106.871902 149.099945,108.764915 
	C156.113785,113.847046 157.310501,123.618340 150.494797,132.778763 
	C155.527908,132.778763 160.409760,132.778763 164.862335,132.778763 
	C162.931870,129.203979 160.294312,125.695183 159.059723,121.747620 
	C156.479492,113.497368 162.993759,105.082359 171.577774,105.007347 
	C181.072083,104.924370 190.567688,104.989166 200.531372,104.994804 
	C201.000000,110.354927 201.000000,115.709862 201.000000,121.532394 
M179.836166,117.773811 
	C185.442352,117.773811 191.048538,117.773811 196.632355,117.773811 
	C196.632355,114.607719 196.632355,112.174622 196.632355,109.373390 
	C188.244949,109.373390 180.115921,109.163200 172.005920,109.464424 
	C168.105957,109.609276 165.273132,111.975044 163.756119,115.770210 
	C162.168335,119.742424 163.439789,122.833450 166.254074,125.696648 
	C168.235382,127.712372 170.144379,129.833740 171.813782,132.107559 
	C172.706741,133.323807 173.024261,134.962555 173.601471,136.410645 
	C172.152573,136.952408 170.717865,137.911789 169.252274,137.961548 
	C163.761444,138.147919 158.233932,137.701462 152.771133,138.134766 
	C147.635193,138.542130 144.875183,136.040939 142.637955,131.986008 
	C144.069351,131.014084 145.399841,130.306305 146.493469,129.332520 
	C150.206085,126.026718 151.424622,121.870628 149.991852,117.128792 
	C148.615158,112.572548 145.355011,109.407982 140.708786,109.180511 
	C131.794815,108.744118 122.844337,109.053528 113.730484,109.053528 
	C113.730484,121.611557 113.730484,133.711594 113.730484,145.933990 
	C117.510643,145.933990 121.028999,145.933990 125.059113,145.933990 
	C125.059113,141.480026 125.059113,137.447250 125.059113,132.682358 
	C129.474609,136.792007 133.131790,140.394196 137.027130,143.717224 
	C138.451996,144.932739 140.429504,146.195328 142.176315,146.226227 
	C153.832260,146.432434 165.512283,146.659363 177.140823,146.048477 
	C180.003967,145.898087 183.489044,143.230621 185.282089,140.717194 
	C187.499146,137.609390 186.668655,133.748352 183.920670,130.622406 
	C181.835129,128.250015 179.901718,125.738716 177.984116,123.225502 
	C176.405640,121.156700 175.476456,119.087242 179.836166,117.773811 
M98.881996,131.547028 
	C96.700684,125.091110 94.681664,118.571854 92.206688,112.230553 
	C91.686394,110.897476 89.317421,109.206314 88.097404,109.415222 
	C83.150047,110.262360 75.989769,105.901649 73.535049,111.553238 
	C68.671875,122.749939 65.724312,134.778671 61.842525,146.908401 
	C64.343964,146.908401 66.334869,146.753098 68.291130,146.947083 
	C70.830681,147.198914 72.533585,146.444260 72.915146,143.781189 
	C73.573837,139.183975 76.300476,137.832275 80.617996,138.475189 
	C82.411194,138.742203 84.303719,138.717651 86.104561,138.477234 
	C89.519188,138.021362 91.519592,139.252594 92.038361,142.719803 
	C92.551186,146.147263 94.478546,147.470184 97.937737,146.955002 
	C99.714561,146.690414 101.563278,146.908585 103.884239,146.908585 
	C102.179466,141.746735 100.622482,137.032364 98.881996,131.547028 
z"/>
<path fill="#F9BC07" opacity="1.000000" stroke="none" 
	d="
M1.000000,105.437500 
	C6.164653,104.995811 11.333807,105.121101 16.492373,104.941788 
	C19.914003,104.822845 22.745232,105.049515 22.574953,110.149780 
	C23.453976,103.949173 27.683834,104.991379 31.371689,104.988220 
	C35.362267,104.984802 39.352848,104.987434 43.462387,104.987434 
	C44.154034,106.868927 44.802925,108.634102 45.905842,111.634377 
	C45.557491,105.826881 47.902672,104.575974 52.211681,104.897453 
	C57.336288,105.279778 62.511227,104.987434 68.085426,104.987434 
	C63.246449,119.767174 58.587475,134.185730 53.707581,148.529129 
	C53.333637,149.628265 51.448357,150.815338 50.183121,150.915024 
	C38.776691,151.813644 38.771286,151.745026 34.427402,139.070984 
	C33.198734,142.279449 32.375114,145.207428 30.957869,147.812454 
	C30.218046,149.172318 28.517155,150.709595 27.104740,150.867950 
	C23.330164,151.291107 19.476856,151.012039 15.520853,151.012039 
	C11.318637,138.495041 7.173874,126.112244 2.982856,113.745110 
	C2.690036,112.881042 2.054464,112.133125 1.289139,111.665604 
	C1.000000,109.958336 1.000000,107.916664 1.000000,105.437500 
M9.698463,117.783539 
	C12.504910,126.298470 15.383250,134.790787 18.073854,143.342163 
	C18.877581,145.896591 19.981779,147.012024 22.917673,147.039993 
	C25.944067,147.068756 26.936800,145.717239 27.739628,143.263947 
	C29.739580,137.152420 31.906025,131.095367 34.323921,124.094910 
	C37.219738,132.332626 39.742508,139.509140 42.170231,146.415268 
	C47.476135,148.085922 49.923485,146.394516 51.321598,141.207642 
	C53.607571,132.726913 56.799248,124.491150 59.578564,116.141968 
	C60.281021,114.031754 60.868855,111.883392 61.549065,109.620483 
	C51.193882,108.640022 51.197475,108.641228 48.276073,117.358742 
	C47.491951,119.698563 46.678658,122.028603 45.568192,125.269531 
	C44.005108,120.686417 42.532581,117.054558 41.556786,113.293808 
	C40.755718,110.206444 39.306831,108.745422 36.016308,109.219528 
	C32.581680,109.714401 28.235567,107.550095 26.942120,113.347351 
	C26.090769,117.163132 24.318844,120.773514 22.654800,125.304565 
	C20.947430,120.332512 19.794197,116.191086 18.049112,112.316208 
	C17.436689,110.956352 15.492317,109.741104 13.939165,109.371407 
	C11.834677,108.870461 9.521373,109.246780 6.897763,109.246780 
	C7.879259,112.354233 8.623265,114.709785 9.698463,117.783539 
z"/>
<path fill="#0D0A00" opacity="1.000000" stroke="none" 
	d="
M28.978756,64.137367 
	C30.750393,57.618057 33.312988,55.158577 38.914864,55.126266 
	C57.547974,55.018787 76.182091,55.085609 95.244156,55.085609 
	C95.244156,57.819725 95.244156,60.352318 95.244156,63.391594 
	C89.615517,63.391594 84.029800,63.391594 77.904083,63.391594 
	C77.904083,73.268227 77.904083,82.671532 77.904083,92.419281 
	C74.137314,92.419281 70.902771,92.419281 67.097580,92.419281 
	C67.097580,83.122528 67.097580,73.737389 67.097580,63.621696 
	C59.491638,63.621696 52.415207,63.429951 45.356911,63.704475 
	C41.946987,63.837101 41.766464,66.187637 43.419964,68.638405 
	C45.278141,71.392548 47.229591,74.096313 49.314396,76.681755 
	C51.840405,79.814346 52.715168,83.110229 50.940411,86.862251 
	C49.116955,90.717224 45.886295,92.664642 41.780216,92.708939 
	C29.817375,92.837997 17.852243,92.754753 5.484779,92.754753 
	C5.484779,89.944862 5.484779,87.406471 5.484779,84.221344 
	C14.553678,84.221344 23.657606,84.315575 32.756851,84.150993 
	C34.868416,84.112793 36.964012,83.192085 39.066956,82.677452 
	C38.063423,80.681122 37.139771,78.639542 36.039776,76.697853 
	C33.727840,72.616898 31.323311,68.588387 28.978756,64.137367 
z"/>
<path fill="#070600" opacity="1.000000" stroke="none" 
	d="
M182.050415,68.613190 
	C179.778610,72.312820 177.547974,75.602928 174.961792,79.417450 
	C179.454407,88.127853 189.116180,82.552719 196.681824,84.738724 
	C196.681824,87.245987 196.681824,89.677567 196.681824,92.696732 
	C188.969543,92.696732 181.360809,92.908394 173.779602,92.545242 
	C171.925720,92.456436 169.974167,90.702042 168.394775,89.335274 
	C164.763306,86.192741 161.333145,82.817581 157.128662,78.889793 
	C157.128662,83.764603 157.128662,87.934006 157.128662,92.426605 
	C153.144211,92.426605 149.751999,92.426605 145.990173,92.426605 
	C145.990173,80.121597 145.990173,67.911224 145.990173,55.259567 
	C154.783966,55.259567 163.574631,54.823658 172.297592,55.404556 
	C178.686722,55.830036 181.984543,60.840416 182.050415,68.613190 
M171.847641,65.957954 
	C167.580429,61.233242 162.216507,64.421173 157.209595,63.379723 
	C157.209595,66.498711 157.209595,69.043350 157.209595,71.896248 
	C160.838516,71.896248 164.146057,72.024910 167.438751,71.858910 
	C170.532974,71.702911 172.454361,70.198486 171.847641,65.957954 
z"/>
<path fill="#070500" opacity="1.000000" stroke="none" 
	d="
M104.758514,92.081604 
	C101.415054,92.430031 98.299568,92.430031 94.520859,92.430031 
	C95.941254,87.915947 97.260643,83.688980 98.601593,79.468857 
	C100.816513,72.498222 103.146317,65.561806 105.216911,58.548733 
	C106.006355,55.874928 107.279099,54.852894 110.138123,55.022701 
	C114.613899,55.288532 119.117073,55.093182 123.889420,55.093182 
	C128.132080,67.428169 132.330429,79.634354 136.542099,91.879265 
	C128.359741,93.925209 127.359207,93.445221 124.244492,86.726898 
	C123.814804,85.800072 122.892426,84.468834 122.139793,84.429062 
	C117.820023,84.200798 113.272041,83.534027 109.242958,84.633659 
	C107.321396,85.158096 106.374741,89.254662 104.758514,92.081604 
M112.422722,69.132523 
	C111.769669,71.282494 111.116615,73.432472 110.422043,75.719131 
	C113.922157,75.719131 116.816124,75.719131 120.081619,75.719131 
	C118.508179,71.051521 117.062973,66.764343 115.166145,61.137428 
	C114.074478,64.410065 113.410080,66.401802 112.422722,69.132523 
z"/>
<path fill="#080600" opacity="1.000000" stroke="none" 
	d="
M179.379272,117.807419 
	C175.476456,119.087242 176.405640,121.156700 177.984116,123.225502 
	C179.901718,125.738716 181.835129,128.250015 183.920670,130.622406 
	C186.668655,133.748352 187.499146,137.609390 185.282089,140.717194 
	C183.489044,143.230621 180.003967,145.898087 177.140823,146.048477 
	C165.512283,146.659363 153.832260,146.432434 142.176315,146.226227 
	C140.429504,146.195328 138.451996,144.932739 137.027130,143.717224 
	C133.131790,140.394196 129.474609,136.792007 125.059113,132.682358 
	C125.059113,137.447250 125.059113,141.480026 125.059113,145.933990 
	C121.028999,145.933990 117.510643,145.933990 113.730484,145.933990 
	C113.730484,133.711594 113.730484,121.611557 113.730484,109.053528 
	C122.844337,109.053528 131.794815,108.744118 140.708786,109.180511 
	C145.355011,109.407982 148.615158,112.572548 149.991852,117.128792 
	C151.424622,121.870628 150.206085,126.026718 146.493469,129.332520 
	C145.399841,130.306305 144.069351,131.014084 142.637955,131.986008 
	C144.875183,136.040939 147.635193,138.542130 152.771133,138.134766 
	C158.233932,137.701462 163.761444,138.147919 169.252274,137.961548 
	C170.717865,137.911789 172.152573,136.952408 173.601471,136.410645 
	C173.024261,134.962555 172.706741,133.323807 171.813782,132.107559 
	C170.144379,129.833740 168.235382,127.712372 166.254074,125.696648 
	C163.439789,122.833450 162.168335,119.742424 163.756119,115.770210 
	C165.273132,111.975044 168.105957,109.609276 172.005920,109.464424 
	C180.115921,109.163200 188.244949,109.373390 196.632355,109.373390 
	C196.632355,112.174622 196.632355,114.607719 196.632355,117.773811 
	C191.048538,117.773811 185.442352,117.773811 179.379272,117.807419 
M135.081161,117.784576 
	C131.799805,117.784576 128.518463,117.784576 125.089722,117.784576 
	C125.089722,120.744179 125.089722,123.152916 125.089722,125.984451 
	C128.442505,125.984451 131.650452,126.399361 134.675064,125.833832 
	C136.587433,125.476273 138.226242,123.655678 139.987747,122.491287 
	C138.650635,120.939659 137.313522,119.388031 135.081161,117.784576 
z"/>
<path fill="#090700" opacity="1.000000" stroke="none" 
	d="
M98.973747,131.932510 
	C100.622482,137.032364 102.179466,141.746735 103.884239,146.908585 
	C101.563278,146.908585 99.714561,146.690414 97.937737,146.955002 
	C94.478546,147.470184 92.551186,146.147263 92.038361,142.719803 
	C91.519592,139.252594 89.519188,138.021362 86.104561,138.477234 
	C84.303719,138.717651 82.411194,138.742203 80.617996,138.475189 
	C76.300476,137.832275 73.573837,139.183975 72.915146,143.781189 
	C72.533585,146.444260 70.830681,147.198914 68.291130,146.947083 
	C66.334869,146.753098 64.343964,146.908401 61.842525,146.908401 
	C65.724312,134.778671 68.671875,122.749939 73.535049,111.553238 
	C75.989769,105.901649 83.150047,110.262360 88.097404,109.415222 
	C89.317421,109.206314 91.686394,110.897476 92.206688,112.230553 
	C94.681664,118.571854 96.700684,125.091110 98.973747,131.932510 
M82.484535,116.469635 
	C80.938866,120.799873 79.393196,125.130112 77.709145,129.848022 
	C81.150696,129.848022 84.039177,129.848022 87.560059,129.848022 
	C85.964554,125.292946 84.500557,121.113297 82.484535,116.469635 
z"/>
<path fill="#070500" opacity="1.000000" stroke="none" 
	d="
M9.532868,117.424438 
	C8.623265,114.709785 7.879259,112.354233 6.897763,109.246780 
	C9.521373,109.246780 11.834677,108.870461 13.939165,109.371407 
	C15.492317,109.741104 17.436689,110.956352 18.049112,112.316208 
	C19.794197,116.191086 20.947430,120.332512 22.654800,125.304565 
	C24.318844,120.773514 26.090769,117.163132 26.942120,113.347351 
	C28.235567,107.550095 32.581680,109.714401 36.016308,109.219528 
	C39.306831,108.745422 40.755718,110.206444 41.556786,113.293808 
	C42.532581,117.054558 44.005108,120.686417 45.568192,125.269531 
	C46.678658,122.028603 47.491951,119.698563 48.276073,117.358742 
	C51.197475,108.641228 51.193882,108.640022 61.549065,109.620483 
	C60.868855,111.883392 60.281021,114.031754 59.578564,116.141968 
	C56.799248,124.491150 53.607571,132.726913 51.321598,141.207642 
	C49.923485,146.394516 47.476135,148.085922 42.170231,146.415268 
	C39.742508,139.509140 37.219738,132.332626 34.323921,124.094910 
	C31.906025,131.095367 29.739580,137.152420 27.739628,143.263947 
	C26.936800,145.717239 25.944067,147.068756 22.917673,147.039993 
	C19.981779,147.012024 18.877581,145.896591 18.073854,143.342163 
	C15.383250,134.790787 12.504910,126.298470 9.532868,117.424438 
z"/>
<path fill="#EDB406" opacity="1.000000" stroke="none" 
	d="
M171.952393,66.352127 
	C172.454361,70.198486 170.532974,71.702911 167.438751,71.858910 
	C164.146057,72.024910 160.838516,71.896248 157.209595,71.896248 
	C157.209595,69.043350 157.209595,66.498711 157.209595,63.379723 
	C162.216507,64.421173 167.580429,61.233242 171.952393,66.352127 
z"/>
<path fill="#F2B706" opacity="1.000000" stroke="none" 
	d="
M112.584198,68.763031 
	C113.410080,66.401802 114.074478,64.410065 115.166145,61.137428 
	C117.062973,66.764343 118.508179,71.051521 120.081619,75.719131 
	C116.816124,75.719131 113.922157,75.719131 110.422043,75.719131 
	C111.116615,73.432472 111.769669,71.282494 112.584198,68.763031 
z"/>
<path fill="#FDBF07" opacity="1.000000" stroke="none" 
	d="
M135.528778,117.810486 
	C137.313522,119.388031 138.650635,120.939659 139.987747,122.491287 
	C138.226242,123.655678 136.587433,125.476273 134.675064,125.833832 
	C131.650452,126.399361 128.442505,125.984451 125.089722,125.984451 
	C125.089722,123.152916 125.089722,120.744179 125.089722,117.784576 
	C128.518463,117.784576 131.799805,117.784576 135.528778,117.810486 
z"/>
<path fill="#F7BB07" opacity="1.000000" stroke="none" 
	d="
M82.760544,116.701645 
	C84.500557,121.113297 85.964554,125.292946 87.560059,129.848022 
	C84.039177,129.848022 81.150696,129.848022 77.709145,129.848022 
	C79.393196,125.130112 80.938866,120.799873 82.760544,116.701645 
z"/>
</svg>