<?xml version="1.0" encoding="UTF-8"?>
<svg xmlns="http://www.w3.org/2000/svg" xmlns:xlink="http://www.w3.org/1999/xlink" width="30px" height="30px" viewBox="0 0 30 30" version="1.1">
<g id="surface1">
<path style=" stroke:none;fill-rule:nonzero;fill:rgb(0%,0%,0%);fill-opacity:1;" d="M 17.546875 0.09375 C 17.453125 0.148438 16.375 1.179688 15.15625 2.390625 L 12.949219 4.601562 L 19.171875 10.820312 L 25.398438 17.050781 L 27.585938 14.867188 C 28.789062 13.671875 29.824219 12.585938 29.890625 12.46875 C 30.03125 12.195312 30.03125 11.945312 29.890625 11.671875 C 29.75 11.402344 18.554688 0.222656 18.296875 0.09375 C 18.0625 -0.0234375 17.777344 -0.0234375 17.546875 0.09375 Z M 17.546875 0.09375 "/>
<path style=" stroke:none;fill-rule:nonzero;fill:rgb(0%,0%,0%);fill-opacity:1;" d="M 9.976562 7.570312 C 8.359375 9.203125 8.265625 9.3125 8.039062 9.785156 C 7.300781 11.28125 7.539062 12.71875 8.734375 13.96875 C 9.011719 14.261719 9.269531 14.5625 9.3125 14.632812 C 9.390625 14.789062 9.390625 15.3125 9.3125 15.617188 C 8.976562 16.828125 7.492188 18.515625 6.175781 19.164062 C 5.75 19.382812 5.636719 19.414062 5.0625 19.460938 C 4.289062 19.515625 3.667969 19.671875 3.085938 19.9375 C 1.640625 20.609375 0.585938 21.859375 0.171875 23.40625 C -0.015625 24.085938 -0.015625 25.375 0.164062 26.046875 C 0.679688 27.90625 2.097656 29.328125 3.953125 29.828125 C 4.628906 30.015625 5.917969 30.015625 6.59375 29.828125 C 8.132812 29.414062 9.367188 28.382812 10.054688 26.9375 C 10.320312 26.378906 10.46875 25.746094 10.539062 24.960938 C 10.582031 24.433594 10.628906 24.246094 10.773438 23.929688 C 11.648438 22.066406 14.191406 20.257812 15.328125 20.683594 C 15.414062 20.71875 15.726562 20.976562 16.023438 21.257812 C 17.28125 22.460938 18.71875 22.699219 20.214844 21.96875 C 20.6875 21.734375 20.796875 21.640625 22.441406 20.003906 L 24.171875 18.289062 L 17.960938 12.070312 C 14.542969 8.65625 11.730469 5.859375 11.710938 5.859375 C 11.695312 5.859375 10.914062 6.632812 9.976562 7.570312 Z M 5.683594 23.964844 C 5.945312 24.101562 6.152344 24.433594 6.152344 24.726562 C 6.152344 25.171875 5.71875 25.605469 5.265625 25.605469 C 4.839844 25.605469 4.394531 25.160156 4.394531 24.726562 C 4.394531 24.445312 4.601562 24.101562 4.851562 23.96875 C 5.132812 23.820312 5.398438 23.820312 5.683594 23.964844 Z M 5.683594 23.964844 "/>
</g>
</svg>
