<?xml version="1.0" encoding="UTF-8"?>
<svg xmlns="http://www.w3.org/2000/svg" xmlns:xlink="http://www.w3.org/1999/xlink" width="30px" height="30px" viewBox="0 0 30 30" version="1.1">
<g id="surface1">
<path style=" stroke:none;fill-rule:nonzero;fill:rgb(0%,0%,0%);fill-opacity:1;" d="M 17.519531 0.117188 C 17.40625 0.175781 15.28125 2.261719 12.796875 4.757812 L 8.28125 9.289062 L 8.03125 9.785156 C 7.300781 11.285156 7.539062 12.71875 8.734375 13.96875 C 9.011719 14.261719 9.269531 14.5625 9.3125 14.632812 C 9.390625 14.789062 9.390625 15.3125 9.3125 15.617188 C 8.976562 16.828125 7.492188 18.515625 6.175781 19.164062 C 5.75 19.382812 5.636719 19.414062 5.0625 19.460938 C 4.710938 19.484375 4.210938 19.5625 3.953125 19.628906 C 2.125 20.097656 0.671875 21.550781 0.171875 23.40625 C -0.015625 24.085938 -0.015625 25.375 0.164062 26.046875 C 0.679688 27.90625 2.097656 29.328125 3.953125 29.828125 C 4.628906 30.015625 5.917969 30.015625 6.59375 29.828125 C 8.132812 29.414062 9.367188 28.382812 10.054688 26.9375 C 10.320312 26.378906 10.46875 25.746094 10.539062 24.960938 C 10.582031 24.433594 10.628906 24.246094 10.773438 23.929688 C 11.648438 22.066406 14.191406 20.257812 15.328125 20.683594 C 15.414062 20.71875 15.726562 20.976562 16.023438 21.257812 C 17.28125 22.460938 18.714844 22.699219 20.214844 21.96875 C 20.710938 21.71875 20.710938 21.71875 25.1875 17.261719 C 27.648438 14.8125 29.734375 12.6875 29.828125 12.546875 C 30.03125 12.234375 30.046875 11.976562 29.890625 11.671875 C 29.75 11.402344 18.554688 0.222656 18.296875 0.09375 C 18.054688 -0.03125 17.773438 -0.0234375 17.519531 0.117188 Z M 22.910156 7.117188 L 27.859375 12.070312 L 24.140625 15.789062 L 14.210938 5.859375 L 16.054688 4.015625 C 17.070312 3 17.914062 2.167969 17.929688 2.167969 C 17.945312 2.167969 20.1875 4.394531 22.910156 7.117188 Z M 21.257812 18.671875 C 19.382812 20.546875 19.324219 20.589844 18.574219 20.59375 C 17.988281 20.59375 17.726562 20.460938 17.027344 19.804688 C 16.722656 19.515625 16.359375 19.226562 16.226562 19.15625 C 14.804688 18.433594 12.773438 19.089844 10.9375 20.859375 C 10.148438 21.621094 9.625 22.296875 9.257812 23.054688 C 8.941406 23.703125 8.789062 24.226562 8.789062 24.726562 C 8.777344 26.351562 7.582031 27.820312 6.007812 28.15625 C 4.816406 28.40625 3.691406 28.066406 2.8125 27.195312 C 1.699219 26.09375 1.445312 24.460938 2.179688 23.070312 C 2.425781 22.59375 3.140625 21.878906 3.617188 21.632812 C 4.066406 21.390625 4.773438 21.210938 5.238281 21.210938 C 7.148438 21.203125 9.808594 19.019531 10.796875 16.640625 C 11.234375 15.597656 11.242188 14.5625 10.828125 13.746094 C 10.765625 13.625 10.484375 13.277344 10.195312 12.972656 C 9.550781 12.289062 9.40625 12.011719 9.40625 11.453125 C 9.40625 10.6875 9.421875 10.65625 11.304688 8.773438 L 12.976562 7.089844 L 22.910156 17.023438 Z M 21.257812 18.671875 "/>
<path style=" stroke:none;fill-rule:nonzero;fill:rgb(0%,0%,0%);fill-opacity:1;" d="M 4.851562 23.96875 C 4.601562 24.101562 4.394531 24.445312 4.394531 24.726562 C 4.394531 25.171875 4.828125 25.605469 5.273438 25.605469 C 5.375 25.605469 5.5625 25.554688 5.683594 25.488281 C 5.945312 25.351562 6.152344 25.019531 6.152344 24.726562 C 6.152344 24.433594 5.945312 24.101562 5.683594 23.964844 C 5.398438 23.820312 5.132812 23.820312 4.851562 23.96875 Z M 4.851562 23.96875 "/>
</g>
</svg>
